# xmcd
#
# Track frame offsets: 
#        150
#        14360
#        57347
#        84448
#        113570
#
# Disc length: 1902 seconds
#
# Revision: 0
# Processed by: cddbd v1.5.2PL0 Copyright (c) Steve Scherf et al.
# Submitted via: ExactAudioCopy v0.95b4
#
DISCID=32076c05
DTITLE=Kelis - Milkshake (Single) (UK)
DYEAR=2004
DGENRE=R&B
TTITLE0=Milkshake
TTITLE1=Milkshake (X-Press 2 Triple Thick Vocal Mix)
TTITLE2=Milkshake (DJ Zinc Remix)
TTITLE3=Milkshake (FreQ Nasty's Hip Hall Mix)
TTITLE4=Milkshake (Tom Neville Remix)
EXTD=
EXTT0=
EXTT1=
EXTT2=
EXTT3=
EXTT4=
PLAYORDER=
